<?xml version="1.0" standalone="no"?>
<!DOCTYPE svg PUBLIC "-//W3C//DTD SVG 20010904//EN"
 "http://www.w3.org/TR/2001/REC-SVG-20010904/DTD/svg10.dtd">
<svg version="1.0" xmlns="http://www.w3.org/2000/svg"
 width="512.000000pt" height="512.000000pt" viewBox="0 0 512.000000 512.000000"
 preserveAspectRatio="xMidYMid meet">

<g transform="translate(0.000000,512.000000) scale(0.100000,-0.100000)"
fill="#000000" stroke="none">
<path d="M2837 5091 c-98 -117 -227 -658 -252 -1058 l-8 -113 293 0 293 0 -7
113 c-26 411 -158 954 -259 1065 -26 28 -30 28 -60 -7z"/>
<path d="M2410 5031 c-179 -67 -333 -164 -469 -296 -152 -147 -263 -317 -332
-507 -30 -82 -69 -242 -69 -285 l0 -23 365 0 365 0 4 23 c2 12 9 87 15 167 24
322 107 697 206 933 9 22 4 21 -85 -12z"/>
<path d="M3296 4903 c81 -240 142 -559 159 -818 3 -55 8 -115 11 -132 l5 -33
364 0 365 0 0 28 c-1 43 -36 190 -65 272 -70 192 -169 347 -319 496 -118 118
-211 186 -341 251 -64 32 -214 93 -229 93 -2 0 21 -71 50 -157z"/>
<path d="M1540 3598 c0 -44 39 -204 69 -286 135 -371 439 -673 810 -806 41
-15 75 -25 77 -23 2 2 -7 31 -21 64 -88 218 -174 632 -190 923 -4 58 -8 115
-11 128 l-4 22 -365 0 -365 0 0 -22z"/>
<path d="M2585 3508 c25 -408 156 -951 256 -1062 l27 -31 22 20 c101 92 240
650 266 1073 l7 112 -293 0 -293 0 8 -112z"/>
<path d="M3466 3588 c-3 -18 -8 -78 -11 -133 -17 -259 -78 -578 -159 -817 -29
-87 -52 -158 -50 -158 15 0 165 61 229 93 250 125 470 347 598 602 63 126 126
335 127 418 l0 27 -365 0 -364 0 -5 -32z"/>
<path d="M1705 2170 c-138 -15 -296 -69 -417 -143 l-68 -42 0 -946 0 -946 73
-21 c248 -73 268 -74 1357 -70 952 3 955 3 1035 26 164 45 350 160 453 279 27
32 251 353 498 713 314 459 454 671 467 710 23 66 19 145 -10 212 -73 164
-282 227 -433 130 -28 -19 -173 -190 -460 -547 -239 -297 -434 -530 -455 -544
-91 -61 -82 -60 -755 -61 -580 0 -617 1 -650 19 -46 24 -70 59 -77 108 -8 57
12 108 55 141 l35 27 596 5 c583 5 597 5 642 26 226 105 237 416 18 534 l-64
35 -455 5 -455 5 -40 28 c-22 15 -80 59 -130 98 -103 81 -275 169 -378 193
-67 16 -238 37 -287 34 -14 0 -57 -4 -95 -8z"/>
<path d="M81 2101 c-18 -10 -44 -35 -57 -57 l-24 -39 0 -944 0 -944 24 -42
c44 -74 59 -77 386 -73 267 3 288 4 331 24 60 28 125 93 153 153 21 46 21 48
21 881 0 833 0 835 -21 881 -28 60 -93 125 -153 153 -43 20 -63 21 -336 23
-265 3 -293 1 -324 -16z"/>
</g>
</svg>
