<?xml version="1.0" standalone="no"?>
<!DOCTYPE svg PUBLIC "-//W3C//DTD SVG 20010904//EN"
 "http://www.w3.org/TR/2001/REC-SVG-20010904/DTD/svg10.dtd">
<svg version="1.0" xmlns="http://www.w3.org/2000/svg"
 width="512.000000pt" height="512.000000pt" viewBox="0 0 512.000000 512.000000"
 preserveAspectRatio="xMidYMid meet">

<g transform="translate(0.000000,512.000000) scale(0.100000,-0.100000)"
fill="#000000" stroke="none">
<path d="M818 5019 c-108 -16 -183 -40 -293 -94 -283 -141 -469 -399 -516
-715 -25 -171 10 -402 85 -564 39 -85 759 -1311 789 -1344 14 -15 32 -22 57
-22 25 0 43 7 57 22 26 29 741 1224 787 1316 78 156 112 325 103 516 -7 143
-30 233 -92 361 -177 367 -580 582 -977 524z m224 -480 c195 -41 349 -206 379
-409 14 -91 -4 -201 -48 -289 -43 -86 -136 -174 -229 -218 -73 -35 -87 -38
-184 -41 -88 -3 -116 0 -170 18 -237 79 -379 322 -329 562 26 125 122 259 233
323 99 58 231 78 348 54z"/>
<path d="M865 4226 c-37 -17 -80 -62 -94 -99 -26 -67 2 -167 57 -206 78 -55
169 -46 238 23 68 67 70 162 6 238 -46 55 -138 75 -207 44z"/>
<path d="M3250 3401 c-19 -10 -45 -36 -57 -57 l-23 -39 0 -1065 0 -1065 155 0
155 0 0 268 c0 154 4 267 9 267 24 0 1578 783 1593 803 27 34 41 91 34 132
-16 84 2 75 -912 440 -607 242 -851 335 -880 335 -22 0 -55 -8 -74 -19z"/>
<path d="M1300 2198 l-91 -153 433 -5 c412 -5 435 -6 478 -26 97 -45 156 -146
148 -256 -5 -74 -25 -120 -73 -170 -76 -78 -17 -72 -895 -78 -697 -5 -791 -8
-842 -23 -205 -60 -363 -210 -423 -401 -50 -157 -40 -306 31 -454 52 -108 168
-224 276 -276 142 -68 100 -66 1261 -66 l1048 0 -8 38 c-4 20 -8 90 -8 155 l0
117 -1031 0 c-1149 0 -1090 -3 -1182 70 -73 57 -107 131 -107 230 1 124 60
215 174 269 l56 26 795 5 795 5 65 25 c271 106 426 384 369 662 -31 150 -146
307 -280 381 -125 70 -177 77 -560 77 l-338 0 -91 -152z"/>
<path d="M3213 856 c-104 -34 -194 -114 -241 -214 -24 -50 -27 -69 -27 -162 0
-92 3 -112 26 -160 41 -85 99 -144 187 -187 71 -36 81 -38 166 -37 117 1 184
26 263 97 207 189 157 522 -97 641 -53 25 -80 31 -150 33 -53 2 -101 -2 -127
-11z"/>
</g>
</svg>
