<?xml version="1.0" standalone="no"?>
<!DOCTYPE svg PUBLIC "-//W3C//DTD SVG 20010904//EN"
 "http://www.w3.org/TR/2001/REC-SVG-20010904/DTD/svg10.dtd">
<svg version="1.0" xmlns="http://www.w3.org/2000/svg"
 width="512.000000pt" height="512.000000pt" viewBox="0 0 512.000000 512.000000"
 preserveAspectRatio="xMidYMid meet">

<g transform="translate(0.000000,512.000000) scale(0.100000,-0.100000)"
fill="#000000" stroke="none">
<path d="M2140 4960 l0 -160 -320 0 -320 0 0 -954 0 -955 88 -57 c107 -69 260
-221 332 -328 177 -265 243 -573 184 -861 -56 -268 -231 -662 -520 -1167 l-84
-146 0 -146 0 -146 825 0 825 0 0 485 0 486 158 -3 157 -3 3 -482 2 -483 810
0 810 0 0 2380 0 2380 -317 2 -318 3 -3 158 -3 157 -1154 0 -1155 0 0 -160z
m1010 -760 l0 -180 160 0 160 0 0 180 0 180 155 0 155 0 0 -525 0 -525 -155 0
-155 0 0 185 0 185 -160 0 -160 0 0 -185 0 -185 -160 0 -160 0 0 525 0 525
160 0 160 0 0 -180z m-320 -1445 l0 -155 -155 0 -155 0 0 155 0 155 155 0 155
0 0 -155z m640 0 l0 -155 -160 0 -160 0 0 155 0 155 160 0 160 0 0 -155z m630
0 l0 -155 -160 0 -160 0 0 155 0 155 160 0 160 0 0 -155z m-1270 -620 l0 -155
-155 0 -155 0 0 155 0 155 155 0 155 0 0 -155z m640 0 l0 -155 -160 0 -160 0
0 155 0 155 160 0 160 0 0 -155z m630 0 l0 -155 -160 0 -160 0 0 155 0 155
160 0 160 0 0 -155z m-1270 -630 l0 -155 -155 0 -155 0 0 155 0 155 155 0 155
0 0 -155z m640 0 l0 -155 -160 0 -160 0 0 155 0 155 160 0 160 0 0 -155z m630
0 l0 -155 -160 0 -160 0 0 155 0 155 160 0 160 0 0 -155z"/>
<path d="M810 2714 c-246 -45 -428 -146 -566 -312 -180 -217 -246 -489 -180
-745 63 -245 262 -663 549 -1152 88 -149 309 -506 312 -503 10 13 150 239 243
393 305 506 520 942 608 1230 24 78 28 108 28 220 1 146 -9 199 -62 325 -107
255 -311 437 -579 516 -68 20 -116 26 -208 29 -66 2 -131 2 -145 -1z m296
-328 c235 -75 404 -307 404 -556 0 -240 -163 -467 -396 -552 -82 -30 -244 -36
-334 -13 -165 43 -307 158 -378 306 -47 98 -62 162 -62 262 1 239 146 452 371
543 123 50 257 53 395 10z"/>
<path d="M850 2091 c-49 -15 -87 -40 -124 -81 -50 -56 -68 -102 -69 -175 -1
-209 216 -338 397 -237 156 88 184 295 58 425 -60 62 -179 93 -262 68z"/>
</g>
</svg>
