<?xml version="1.0" standalone="no"?>
<!DOCTYPE svg PUBLIC "-//W3C//DTD SVG 20010904//EN"
 "http://www.w3.org/TR/2001/REC-SVG-20010904/DTD/svg10.dtd">
<svg version="1.0" xmlns="http://www.w3.org/2000/svg"
 width="512.000000pt" height="512.000000pt" viewBox="0 0 512.000000 512.000000"
 preserveAspectRatio="xMidYMid meet">

<g transform="translate(0.000000,512.000000) scale(0.100000,-0.100000)"
fill="#000000" stroke="none">
<path d="M434 5083 c-35 -84 -94 -275 -116 -374 -19 -90 -22 -132 -22 -314 0
-194 2 -217 26 -307 15 -53 42 -132 61 -175 74 -172 77 -175 1086 -1186 l946
-947 121 121 121 120 85 -93 c46 -51 427 -475 845 -943 418 -467 771 -860 784
-871 174 -154 449 -145 615 20 135 136 167 337 82 516 -28 61 -176 211 -2232
2268 l-2201 2202 -92 0 -93 0 -16 -37z"/>
<path d="M3494 4558 c-303 -304 -565 -573 -581 -598 -79 -117 -115 -218 -138
-375 -8 -56 -18 -112 -24 -126 -9 -24 10 -45 334 -369 l343 -343 43 11 c24 6
83 16 130 22 47 5 119 21 159 35 164 56 159 52 779 671 l575 573 -100 100
c-56 56 -105 101 -110 101 -5 0 -190 -181 -411 -402 l-403 -403 -105 105 -105
105 407 407 407 407 -107 108 -108 107 -407 -407 -407 -407 -105 105 -105 105
403 403 c221 221 402 407 402 413 0 12 -196 204 -208 204 -4 0 -255 -249 -558
-552z"/>
<path d="M819 1453 c-694 -696 -747 -752 -773 -810 -114 -263 21 -549 293
-623 58 -15 185 -13 242 4 108 33 120 44 879 802 l745 744 -315 315 c-173 173
-317 315 -320 315 -3 0 -341 -336 -751 -747z"/>
</g>
</svg>
