<?xml version="1.0" standalone="no"?>
<!DOCTYPE svg PUBLIC "-//W3C//DTD SVG 20010904//EN"
 "http://www.w3.org/TR/2001/REC-SVG-20010904/DTD/svg10.dtd">
<svg version="1.0" xmlns="http://www.w3.org/2000/svg"
 width="512.000000pt" height="512.000000pt" viewBox="0 0 512.000000 512.000000"
 preserveAspectRatio="xMidYMid meet">

<g transform="translate(0.000000,512.000000) scale(0.100000,-0.100000)"
fill="#000000" stroke="none">
<path d="M1532 4950 c-285 -39 -505 -248 -558 -531 -30 -154 1 -330 81 -464
41 -69 148 -181 217 -228 26 -18 48 -35 48 -39 0 -5 -238 -8 -530 -8 -499 0
-533 -1 -580 -19 -66 -25 -112 -61 -151 -117 -53 -77 -59 -120 -59 -419 0
-261 1 -272 22 -315 14 -26 37 -53 58 -65 34 -20 52 -20 1098 -23 l1062 -2 0
320 0 320 320 0 320 0 0 -320 0 -320 1063 2 c1045 3 1063 3 1097 23 21 12 44
39 57 65 22 43 23 54 23 315 0 299 -6 342 -59 419 -39 56 -85 92 -151 117 -47
18 -81 19 -580 19 -292 0 -530 3 -530 8 0 4 22 21 48 39 69 47 176 159 217
228 154 257 112 598 -100 810 -125 125 -283 188 -470 188 -116 0 -223 -25
-320 -76 -133 -70 -304 -283 -434 -544 -117 -232 -161 -375 -169 -545 -2 -60
-8 -108 -12 -108 -4 0 -10 48 -12 108 -8 171 -52 313 -170 547 -131 261 -284
455 -420 532 -122 70 -286 102 -426 83z m215 -332 c111 -41 238 -200 353 -441
96 -202 152 -402 129 -463 -32 -88 -409 32 -700 224 -161 107 -229 196 -245
318 -31 254 222 452 463 362z m1838 8 c68 -18 103 -37 148 -82 138 -138 140
-343 6 -489 -24 -26 -91 -79 -148 -117 -294 -194 -667 -312 -701 -223 -23 59
34 261 130 461 177 373 347 509 565 450z"/>
<path d="M322 1403 l3 -998 23 -51 c42 -93 135 -164 241 -184 34 -6 353 -10
852 -10 l799 0 0 1120 0 1120 -960 0 -960 0 2 -997z"/>
<path d="M2880 1280 l0 -1120 799 0 c499 0 818 4 852 10 106 20 199 91 241
184 l23 51 3 998 2 997 -960 0 -960 0 0 -1120z"/>
</g>
</svg>
