<?xml version="1.0" standalone="no"?>
<!DOCTYPE svg PUBLIC "-//W3C//DTD SVG 20010904//EN"
 "http://www.w3.org/TR/2001/REC-SVG-20010904/DTD/svg10.dtd">
<svg version="1.0" xmlns="http://www.w3.org/2000/svg"
 width="512.000000pt" height="512.000000pt" viewBox="0 0 512.000000 512.000000"
 preserveAspectRatio="xMidYMid meet">

<g transform="translate(0.000000,512.000000) scale(0.100000,-0.100000)"
fill="#000000" stroke="none">
<path d="M1940 4905 l0 -215 150 0 150 0 0 215 0 215 -150 0 -150 0 0 -215z"/>
<path d="M1117 4861 c-65 -38 -120 -71 -123 -74 -9 -9 199 -367 212 -365 21 6
253 142 250 147 -54 100 -210 361 -214 360 -4 0 -60 -31 -125 -68z"/>
<path d="M2874 4833 c-31 -54 -79 -136 -106 -182 -27 -46 -47 -85 -46 -86 2
-2 59 -35 127 -75 102 -60 125 -70 136 -59 15 18 207 351 203 354 -8 7 -247
145 -252 145 -3 0 -31 -44 -62 -97z"/>
<path d="M1943 4409 c-471 -55 -874 -383 -1032 -839 -82 -235 -82 -549 -1
-792 52 -155 146 -316 252 -431 l53 -59 42 59 c199 275 539 453 863 453 l87 0
37 63 c58 99 128 186 218 273 196 188 430 301 704 340 66 9 120 18 122 19 8 7
-54 169 -96 249 -236 458 -737 725 -1249 665z"/>
<path d="M401 4144 c-40 -69 -71 -127 -69 -128 26 -22 360 -206 366 -202 12 7
142 232 142 245 0 10 -340 211 -356 211 -5 0 -42 -57 -83 -126z"/>
<path d="M3510 4168 c-96 -55 -176 -102 -178 -103 -6 -5 144 -255 153 -254 17
0 349 196 353 208 5 14 -130 250 -143 251 -5 0 -89 -46 -185 -102z"/>
<path d="M142 3173 l3 -148 213 -3 212 -2 0 150 0 150 -215 0 -216 0 3 -147z"/>
<path d="M3225 3184 c-376 -56 -646 -266 -792 -617 l-36 -89 -61 9 c-34 4
-124 8 -201 7 -124 -1 -150 -4 -225 -28 -280 -91 -464 -292 -544 -594 l-23
-87 -104 -6 c-57 -4 -124 -14 -149 -23 -197 -72 -324 -284 -291 -483 33 -196
183 -344 376 -373 47 -7 587 -10 1670 -7 1509 2 1603 4 1660 21 246 74 422
272 463 519 14 88 14 106 0 194 -24 142 -77 244 -182 348 -120 119 -215 165
-396 189 l-85 12 -11 104 c-18 168 -41 254 -104 380 -125 250 -350 429 -628
501 -75 19 -271 33 -337 23z"/>
<path d="M517 2441 c-92 -54 -172 -102 -176 -107 -10 -10 121 -246 139 -252
13 -5 351 189 357 204 5 13 -129 247 -143 250 -5 2 -85 -41 -177 -95z"/>
<path d="M2013 573 c-4 -10 -49 -115 -99 -233 -51 -118 -90 -218 -86 -222 8
-8 265 -119 267 -115 7 11 245 574 245 580 0 4 -72 7 -160 7 -144 0 -161 -2
-167 -17z"/>
<path d="M2667 362 c-53 -125 -97 -232 -97 -237 0 -9 219 -108 258 -117 8 -2
57 101 137 287 69 159 125 291 125 292 0 2 -73 3 -163 3 l-162 0 -98 -228z"/>
<path d="M3503 573 c-4 -10 -49 -115 -99 -233 -51 -118 -90 -218 -86 -222 8
-8 265 -119 267 -115 1 1 58 134 128 295 l126 292 -165 0 c-148 0 -165 -2
-171 -17z"/>
</g>
</svg>
