<?xml version="1.0" standalone="no"?>
<!DOCTYPE svg PUBLIC "-//W3C//DTD SVG 20010904//EN"
 "http://www.w3.org/TR/2001/REC-SVG-20010904/DTD/svg10.dtd">
<svg version="1.0" xmlns="http://www.w3.org/2000/svg"
 width="512.000000pt" height="512.000000pt" viewBox="0 0 512.000000 512.000000"
 preserveAspectRatio="xMidYMid meet">

<g transform="translate(0.000000,512.000000) scale(0.100000,-0.100000)"
fill="#000000" stroke="none">
<path d="M2487 4590 c-27 -5 -72 -20 -100 -34 -31 -16 -517 -414 -1212 -994
-1222 -1019 -1188 -988 -1172 -1054 4 -13 58 -86 122 -161 96 -114 120 -137
149 -142 19 -4 44 -4 55 0 11 3 517 420 1123 925 607 506 1105 920 1108 920 3
0 501 -414 1108 -920 606 -505 1112 -922 1123 -925 11 -4 36 -4 55 0 29 5 53
28 149 142 64 75 118 148 122 161 15 62 3 74 -367 382 l-355 296 -5 672 -5
672 -28 27 -27 28 -323 3 c-210 2 -335 0 -358 -7 -68 -20 -68 -22 -71 -386
l-3 -327 -295 247 c-474 397 -521 434 -575 454 -62 23 -155 32 -218 21z"/>
<path d="M1642 3018 l-912 -752 0 -781 c0 -536 4 -793 11 -820 15 -55 83 -119
142 -133 32 -9 228 -12 656 -12 l611 0 0 610 0 610 410 0 410 0 0 -610 0 -610
611 0 c407 0 625 4 653 11 56 14 114 62 137 113 18 39 19 84 19 831 l0 791
-908 749 c-500 412 -913 750 -918 752 -5 2 -420 -335 -922 -749z"/>
</g>
</svg>
