<?xml version="1.0" standalone="no"?>
<!DOCTYPE svg PUBLIC "-//W3C//DTD SVG 20010904//EN"
 "http://www.w3.org/TR/2001/REC-SVG-20010904/DTD/svg10.dtd">
<svg version="1.0" xmlns="http://www.w3.org/2000/svg"
 width="512.000000pt" height="512.000000pt" viewBox="0 0 512.000000 512.000000"
 preserveAspectRatio="xMidYMid meet">

<g transform="translate(0.000000,512.000000) scale(0.100000,-0.100000)"
fill="#000000" stroke="none">
<path d="M3217 5109 c-107 -26 -209 -112 -261 -219 l-31 -65 -3 -317 -3 -318
150 0 151 0 0 286 0 286 29 29 29 29 292 0 292 0 29 -29 29 -29 0 -286 0 -286
151 0 150 0 -3 318 -3 317 -31 65 c-39 83 -111 155 -194 194 l-65 31 -335 2
c-184 1 -352 -3 -373 -8z"/>
<path d="M2240 3868 c-38 -15 -74 -40 -117 -83 -52 -53 -64 -72 -82 -131 -21
-69 -21 -70 -19 -1579 l3 -1510 26 -55 c46 -99 122 -165 222 -195 l42 -12 5
-99 c6 -114 22 -150 80 -183 72 -40 157 -16 198 57 18 33 22 55 22 131 l0 91
950 0 950 0 0 -90 c0 -110 18 -154 78 -188 49 -27 91 -28 142 -2 58 29 74 67
80 184 l5 99 42 12 c100 30 176 96 222 195 l26 55 3 1510 c2 1509 2 1510 -19
1579 -18 59 -30 78 -82 131 -45 45 -78 68 -120 83 l-58 22 -1272 -1 c-1269 0
-1272 0 -1327 -21z m611 -401 c74 -49 69 56 69 -1367 0 -1232 -1 -1276 -19
-1317 -22 -47 -79 -83 -132 -83 -46 0 -108 39 -130 82 -18 36 -19 80 -19 1315
0 1197 1 1280 18 1313 25 50 75 80 132 80 32 0 58 -7 81 -23z m1600 0 c74 -49
69 56 69 -1367 0 -1232 -1 -1276 -19 -1317 -22 -47 -79 -83 -132 -83 -46 0
-108 39 -130 82 -18 36 -19 80 -19 1315 0 1197 1 1280 18 1313 25 50 75 80
132 80 32 0 58 -7 81 -23z"/>
<path d="M1580 3820 c-184 -5 -198 -6 -251 -31 -106 -50 -185 -143 -214 -254
-10 -40 -15 -105 -15 -197 l0 -138 150 0 150 0 0 125 c0 131 11 176 45 189 9
3 74 6 144 6 l128 0 6 74 c4 41 18 109 31 152 14 43 24 78 23 79 -1 0 -90 -2
-197 -5z"/>
<path d="M267 2889 c-97 -23 -190 -101 -235 -197 l-27 -57 0 -1035 0 -1035 26
-55 c46 -99 122 -165 222 -195 l42 -12 5 -99 c6 -116 20 -149 78 -182 49 -27
91 -28 142 -2 60 31 80 78 80 190 l0 90 610 0 609 0 -35 73 c-66 140 -64 90
-64 1370 l0 1157 -707 -1 c-390 -1 -725 -5 -746 -10z m549 -410 c31 -15 48
-32 63 -63 21 -42 21 -55 21 -820 0 -759 0 -778 -20 -816 -23 -45 -80 -80
-130 -80 -50 0 -107 35 -130 80 -20 38 -20 57 -20 816 0 764 0 778 21 820 14
30 32 48 62 63 53 26 80 26 133 0z"/>
</g>
</svg>
